<svg xmlns="http://www.w3.org/2000/svg" xmlns:xlink="http://www.w3.org/1999/xlink" width="1080" zoomAndPan="magnify" viewBox="0 0 810 1439.999935" height="1920" preserveAspectRatio="xMidYMid meet" version="1.0"><defs><g/></defs><g fill="#8950ab" fill-opacity="1"><g transform="translate(269.737285, 666.602727)"><g><path d="M 69.261719 -104.144531 C 62.261719 -127.027344 37.378906 -129.914062 18.773438 -119.417969 C 18.996094 -120.527344 19.273438 -121.917969 19.441406 -123.359375 C 20.105469 -129.082031 14.441406 -131.914062 12.273438 -123.25 C 11.609375 -120.363281 11.332031 -116.75 11.164062 -113.75 C -6.777344 -96.3125 -0.667969 -70.261719 12.941406 -53.320312 C 13.496094 -42.324219 13.664062 -38.15625 13.664062 -38.046875 C 7.441406 -38.269531 4.054688 -39.492188 3.445312 -39.492188 C 1.777344 -39.546875 1.667969 -36.992188 3.386719 -36.9375 C 6.832031 -36.824219 10.277344 -36.769531 13.71875 -36.824219 C 13.996094 -28.4375 15.273438 -8.71875 12.550781 0.554688 C 11.554688 4.164062 17.496094 4.722656 17.164062 1.054688 C 14.441406 -29.605469 15.441406 -25.605469 14.828125 -36.878906 C 58.097656 -38.4375 77.316406 -78.039062 69.261719 -104.144531 Z M 10.996094 -110.085938 C 10.941406 -106.199219 10.941406 -101.921875 10.996094 -98.089844 C 11.21875 -85.3125 11.996094 -71.484375 12.773438 -56.820312 C -0.0546875 -69.761719 -4.386719 -92.589844 10.996094 -110.085938 Z M 14.773438 -38.046875 C 14.773438 -38.101562 14.664062 -43.269531 14.441406 -51.378906 C 15.886719 -49.542969 16.273438 -49.210938 17.71875 -47.378906 C 20.050781 -44.269531 24.050781 -48.933594 20.71875 -50.878906 C 20.21875 -51.15625 17.605469 -52.433594 14.386719 -55.265625 C 14.164062 -68.152344 14.050781 -81.816406 14.386719 -94.589844 C 17.386719 -94.8125 16.605469 -97.367188 16.21875 -98.03125 C 14.609375 -100.976562 17.328125 -112.195312 17.996094 -115.472656 C 33.4375 -124.527344 58.042969 -124.636719 64.929688 -102.808594 C 73.707031 -74.539062 50.820312 -37.601562 14.773438 -38.046875 Z M 14.773438 -38.046875 "/></g></g></g><g fill="#8950ab" fill-opacity="1"><g transform="translate(336.143581, 666.602727)"><g><path d="M 37.769531 -48.542969 C 35.160156 -42.492188 31.214844 -35.269531 24.714844 -35.601562 C 17.773438 -35.992188 19.105469 -46.542969 18.164062 -52.265625 C 17.386719 -56.597656 14.664062 -56.210938 13.164062 -52.433594 C 11.609375 -53.433594 9.886719 -54.097656 8 -54.097656 C -1.945312 -53.988281 -5.832031 -33.492188 2.332031 -32.824219 C 7.5 -32.382812 10.441406 -40.214844 13.441406 -47.042969 C 15.550781 -46.988281 16.605469 -49.433594 15.164062 -50.933594 C 15.441406 -51.433594 15.550781 -51.710938 15.664062 -51.988281 C 15.664062 -51.933594 15.71875 -51.878906 15.71875 -51.820312 C 16.828125 -45.15625 16.996094 -34.824219 24.605469 -34.546875 C 31.769531 -34.269531 35.769531 -41.546875 39.546875 -47.601562 C 40.378906 -48.820312 38.324219 -49.878906 37.769531 -48.542969 Z M 2.777344 -34.160156 C -3.554688 -34.382812 1.222656 -51.378906 7.832031 -50.488281 C 9.21875 -50.265625 10.609375 -49.210938 11.71875 -47.824219 C 10.496094 -43.269531 7.71875 -33.992188 2.777344 -34.160156 Z M 2.777344 -34.160156 "/></g></g></g><g fill="#8950ab" fill-opacity="1"><g transform="translate(373.844154, 666.602727)"><g><path d="M 64.539062 -99.976562 C 61.875 -99.867188 57.929688 -99.421875 52.097656 -98.867188 C 34.546875 -97.199219 15.273438 -96.144531 4.5 -95.757812 C 4.445312 -95.757812 4.445312 -95.757812 4.386719 -95.757812 C 4.609375 -98.699219 4.941406 -103.199219 5.222656 -106.640625 C 6.554688 -106.640625 7.554688 -107.753906 7.554688 -109.03125 C 7.441406 -111.972656 7.332031 -115.472656 7.164062 -117.363281 C 6.777344 -122.140625 3 -121.972656 2.386719 -116.308594 C 1.832031 -110.417969 1.445312 -101.421875 1.222656 -95.757812 C 1.222656 -95.699219 1.222656 -95.699219 1.222656 -95.644531 C -9.886719 -95.257812 -25.496094 -95.035156 -36.714844 -95.476562 C -40.769531 -98.253906 -48.210938 -102.53125 -53.097656 -101.53125 C -56.429688 -100.808594 -57.710938 -96.699219 -53.433594 -94.699219 C -49.210938 -92.757812 -39.269531 -92.535156 -34.601562 -92.480469 C -15.996094 -79.925781 -4.222656 -55.710938 0 -33.660156 C 0 -25.992188 -0.167969 -5.832031 1.386719 1 C 2.386719 5.277344 6.941406 5.054688 6.71875 0.609375 C 6.386719 -6.054688 6.386719 -17.328125 2.777344 -33.214844 C 2.445312 -52.375 3.109375 -75.316406 4.332031 -94.367188 C 4.386719 -94.367188 4.5 -94.367188 4.554688 -94.367188 C 21.9375 -95.535156 38.101562 -96.921875 52.15625 -96.8125 C 55.320312 -96.753906 62.820312 -96.589844 65.816406 -95.8125 C 66.261719 -95.257812 66.761719 -94.976562 67.316406 -94.867188 C 69.59375 -94.535156 71.261719 -97.699219 68.929688 -99.144531 C 68.09375 -99.699219 66.707031 -100.03125 64.539062 -99.976562 Z M -52.210938 -97.476562 C -53.597656 -98.03125 -53.433594 -98.53125 -52.488281 -98.8125 C -49.101562 -99.644531 -43.046875 -97.199219 -39.933594 -95.589844 C -43.101562 -95.8125 -49.101562 -96.199219 -52.210938 -97.476562 Z M 0.0546875 -43.269531 C -6 -62.707031 -16.328125 -79.871094 -32.605469 -92.480469 C -22.105469 -92.535156 -9.386719 -93.367188 1.167969 -94.144531 C 0.667969 -79.539062 0.222656 -61.542969 0.0546875 -43.269531 Z M 0.0546875 -43.269531 "/></g></g></g><g fill="#8950ab" fill-opacity="1"><g transform="translate(390.39021, 666.602727)"><g><path d="M 34.046875 -48.601562 C 32.382812 -44.765625 30.660156 -40.992188 28.605469 -37.378906 C 25.882812 -32.546875 21.71875 -26.160156 16.71875 -23.550781 C 10.996094 -20.660156 7.5 -22.328125 9.71875 -32.546875 C 11.996094 -42.546875 13.109375 -44.988281 6.222656 -48.324219 C 5.441406 -48.710938 4.664062 -49.042969 3.945312 -49.378906 C 5.054688 -50.878906 6.054688 -52.433594 6.664062 -54.320312 C 8.777344 -60.875 2.5 -64.207031 -2.167969 -58.765625 C -4.722656 -55.765625 -4.386719 -50.933594 -1.386719 -48.101562 C 0.109375 -46.824219 2.277344 -45.433594 4.222656 -44.601562 C 8.164062 -42.988281 6.054688 -41.710938 5.664062 -33.105469 C 5.164062 -21.105469 10.996094 -18.828125 17.386719 -22.382812 C 22.4375 -25.328125 26.492188 -31.769531 29.492188 -36.878906 C 31.328125 -40.101562 35.4375 -47.933594 35.4375 -47.988281 C 35.878906 -48.933594 34.492188 -49.65625 34.046875 -48.601562 Z M -0.167969 -57.152344 C 2.5 -60.929688 6.222656 -59.375 4.664062 -54.988281 C 4 -53.320312 2.722656 -51.820312 1.167969 -50.710938 C -1.109375 -52.210938 -1.5 -55.375 -0.167969 -57.152344 Z M -0.167969 -57.152344 "/></g></g></g><g fill="#8950ab" fill-opacity="1"><g transform="translate(424.259633, 666.602727)"><g><path d="M 23.160156 -48.988281 C 22.273438 -46.988281 21.273438 -45.046875 20.105469 -43.210938 C 14.273438 -33.992188 4.609375 -34.160156 3.164062 -44.601562 C 2.945312 -46.542969 2.886719 -48.542969 3.054688 -50.542969 C 4.886719 -49.320312 7.109375 -50.488281 7 -52.488281 C 6.941406 -53.433594 6.332031 -54.152344 5.554688 -54.488281 C 4.886719 -55.542969 4.277344 -57.710938 3.945312 -58.488281 C 2.886719 -60.652344 0.0546875 -60.375 -0.277344 -57.765625 C -0.832031 -53.542969 -0.445312 -48.265625 0.5 -44.101562 C 3.554688 -31.992188 14.273438 -32.105469 21.160156 -42.546875 C 22.382812 -44.488281 24.382812 -48.042969 24.605469 -48.324219 C 25.050781 -49.210938 23.605469 -49.878906 23.160156 -48.988281 Z M 4.554688 -65.875 C 4.554688 -64.097656 3.445312 -62.652344 2.167969 -62.652344 C 0.832031 -62.652344 -0.277344 -64.097656 -0.277344 -65.875 C -0.277344 -67.59375 0.832031 -69.039062 2.167969 -69.039062 C 3.445312 -69.039062 4.554688 -67.59375 4.554688 -65.875 Z M 4.554688 -65.875 "/></g></g></g><g fill="#8950ab" fill-opacity="1"><g transform="translate(447.301944, 666.602727)"><g><path d="M 32.269531 -48.988281 C 28.9375 -40.992188 21.050781 -34.382812 13.21875 -34.101562 C 2.5 -33.714844 3.164062 -50.597656 6.609375 -56.875 C 9.441406 -62.207031 15.109375 -61.820312 15.996094 -56.929688 C 16.664062 -53.597656 14.328125 -50.488281 11.332031 -50.65625 C 10.109375 -50.710938 9.277344 -49.488281 9.777344 -48.433594 C 10.109375 -47.601562 10.996094 -47.324219 11.832031 -47.601562 C 16.664062 -49.210938 18.050781 -53.320312 17.496094 -57.210938 C 16.550781 -63.875 8.5 -65.320312 3.5 -58.988281 C -4 -49.15625 0.445312 -31.605469 13.273438 -32.605469 C 21.828125 -33.269531 29.660156 -40.378906 34.101562 -48.101562 C 34.824219 -49.320312 32.824219 -50.320312 32.269531 -48.988281 Z M 32.269531 -48.988281 "/></g></g></g><g fill="#8950ab" fill-opacity="1"><g transform="translate(479.505677, 666.602727)"><g><path d="M 23.160156 -48.988281 C 22.273438 -46.988281 21.273438 -45.046875 20.105469 -43.210938 C 14.273438 -33.992188 4.609375 -34.160156 3.164062 -44.601562 C 2.945312 -46.542969 2.886719 -48.542969 3.054688 -50.542969 C 4.886719 -49.320312 7.109375 -50.488281 7 -52.488281 C 6.941406 -53.433594 6.332031 -54.152344 5.554688 -54.488281 C 4.886719 -55.542969 4.277344 -57.710938 3.945312 -58.488281 C 2.886719 -60.652344 0.0546875 -60.375 -0.277344 -57.765625 C -0.832031 -53.542969 -0.445312 -48.265625 0.5 -44.101562 C 3.554688 -31.992188 14.273438 -32.105469 21.160156 -42.546875 C 22.382812 -44.488281 24.382812 -48.042969 24.605469 -48.324219 C 25.050781 -49.210938 23.605469 -49.878906 23.160156 -48.988281 Z M 4.554688 -65.875 C 4.554688 -64.097656 3.445312 -62.652344 2.167969 -62.652344 C 0.832031 -62.652344 -0.277344 -64.097656 -0.277344 -65.875 C -0.277344 -67.59375 0.832031 -69.039062 2.167969 -69.039062 C 3.445312 -69.039062 4.554688 -67.59375 4.554688 -65.875 Z M 4.554688 -65.875 "/></g></g></g><g fill="#8950ab" fill-opacity="1"><g transform="translate(502.547988, 666.602727)"><g><path d="M 37.769531 -48.542969 C 35.160156 -42.492188 31.214844 -35.269531 24.714844 -35.601562 C 17.773438 -35.992188 19.105469 -46.542969 18.164062 -52.265625 C 17.386719 -56.597656 14.664062 -56.210938 13.164062 -52.433594 C 11.609375 -53.433594 9.886719 -54.097656 8 -54.097656 C -1.945312 -53.988281 -5.832031 -33.492188 2.332031 -32.824219 C 7.5 -32.382812 10.441406 -40.214844 13.441406 -47.042969 C 15.550781 -46.988281 16.605469 -49.433594 15.164062 -50.933594 C 15.441406 -51.433594 15.550781 -51.710938 15.664062 -51.988281 C 15.664062 -51.933594 15.71875 -51.878906 15.71875 -51.820312 C 16.828125 -45.15625 16.996094 -34.824219 24.605469 -34.546875 C 31.769531 -34.269531 35.769531 -41.546875 39.546875 -47.601562 C 40.378906 -48.820312 38.324219 -49.878906 37.769531 -48.542969 Z M 2.777344 -34.160156 C -3.554688 -34.382812 1.222656 -51.378906 7.832031 -50.488281 C 9.21875 -50.265625 10.609375 -49.210938 11.71875 -47.824219 C 10.496094 -43.269531 7.71875 -33.992188 2.777344 -34.160156 Z M 2.777344 -34.160156 "/></g></g></g><g fill="#8950ab" fill-opacity="1"><g transform="translate(275.906583, 855.653806)"><g><path d="M 72.261719 -48.15625 C 68.429688 -48.324219 64.597656 -48.265625 60.765625 -48.042969 C 63.820312 -65.484375 64.375 -89.257812 58.542969 -105.863281 C 48.488281 -134.414062 23.605469 -132.304688 10.664062 -112.585938 C 1.554688 -98.699219 -1.667969 -75.261719 0.890625 -67.039062 C 2.554688 -62.152344 6.886719 -63.375 8.5 -66.375 C 9.941406 -69.039062 6 -71.261719 4.5 -68.652344 C 1.277344 -75.925781 2.722656 -98.089844 11.273438 -112.195312 C 21.050781 -128.25 44.933594 -136.523438 54.320312 -104.476562 C 59.488281 -86.648438 59.820312 -65.929688 57.375 -47.765625 C 44.101562 -46.433594 30.769531 -41.769531 22.21875 -32.214844 C 0.667969 -8 24.882812 14.828125 43.324219 -5.722656 C 52.710938 -15.71875 58.042969 -33.382812 60.542969 -46.878906 C 67.484375 -47.042969 71.59375 -46.15625 72.207031 -46.15625 C 73.539062 -46.101562 73.648438 -48.15625 72.261719 -48.15625 Z M 42.269531 -6.664062 C 26.328125 12.609375 2.832031 -6.277344 24.496094 -30.9375 C 31.882812 -39.324219 43.378906 -45.546875 57.210938 -46.65625 C 55.375 -33.546875 50.988281 -16.605469 42.269531 -6.664062 Z M 42.269531 -6.664062 "/></g></g></g><g fill="#8950ab" fill-opacity="1"><g transform="translate(347.976288, 855.653806)"><g><path d="M 30.828125 -49.101562 C 28.9375 -47.433594 26.550781 -46.324219 24.105469 -46.210938 C 17.996094 -45.824219 12.773438 -51.097656 9.277344 -56.042969 C 9.164062 -56.875 8.71875 -57.597656 8 -57.929688 C 7.832031 -58.152344 7.277344 -59.152344 6.554688 -59.929688 C 4.664062 -61.929688 0.945312 -58.707031 3.886719 -56.152344 C 1 -52.820312 -0.609375 -47.933594 -0.722656 -43.601562 C -1.222656 -28.882812 16.550781 -30.046875 11.996094 -45.433594 C 11.441406 -47.210938 10.886719 -48.933594 10.277344 -50.710938 C 14.441406 -47.433594 18.828125 -44.988281 24.160156 -45.324219 C 27.050781 -45.488281 29.4375 -46.378906 31.882812 -47.378906 C 33.4375 -47.988281 31.992188 -50.210938 30.828125 -49.101562 Z M 2 -43.378906 C 2.554688 -47.65625 4.554688 -51.042969 6.71875 -52.875 C 8.441406 -50.320312 9.71875 -47.542969 10.496094 -44.988281 C 14.21875 -32.492188 0.5 -31.769531 2 -43.378906 Z M 2 -43.378906 "/></g></g></g><g fill="#8950ab" fill-opacity="1"><g transform="translate(378.625366, 855.653806)"><g><path d="M 28.050781 -49.542969 C 20.273438 -47.433594 14.050781 -43.15625 9.164062 -36.046875 C 6.609375 -39.933594 2.054688 -46.378906 1.167969 -52.210938 C -0.167969 -61.097656 9.21875 -63.429688 9.441406 -61.820312 C 9.609375 -60.875 10.21875 -60.152344 10.941406 -59.820312 C 13.386719 -58.652344 15.996094 -61.542969 14.21875 -63.820312 C 8.777344 -70.761719 -3.832031 -62.820312 -1.554688 -51.765625 C -0.445312 -45.878906 4.445312 -38.601562 7.332031 -33.046875 C -3.554688 -14.886719 15.441406 -11.609375 14.496094 -23.160156 C 14.21875 -26.492188 12.609375 -30.605469 10.054688 -34.660156 C 14.609375 -42.933594 21.605469 -47.15625 28.605469 -47.601562 C 30.105469 -47.710938 29.605469 -49.988281 28.050781 -49.542969 Z M 8.386719 -31.046875 C 9.332031 -28.992188 10.664062 -25.773438 10.941406 -23.160156 C 11.554688 -17.105469 2.667969 -17.550781 8.386719 -31.046875 Z M 8.386719 -31.046875 "/></g></g></g><g fill="#8950ab" fill-opacity="1"><g transform="translate(406.553775, 855.653806)"><g><path d="M 32.546875 -48.65625 C 29.882812 -42.324219 24.828125 -36.160156 18.164062 -34.269531 C 11.109375 -32.214844 3.664062 -34.546875 2.945312 -42.433594 C 2.886719 -43.433594 2.886719 -44.433594 3.054688 -45.433594 C 6.609375 -45.433594 10.609375 -45.933594 13.773438 -47.542969 C 20.828125 -51.265625 19.328125 -58.488281 12.886719 -59.320312 C 3.722656 -60.429688 -2.167969 -50.710938 0 -41.933594 C 2.167969 -33.4375 10.554688 -30.882812 18.382812 -33.382812 C 25.4375 -35.546875 30.492188 -41.492188 34.382812 -47.710938 C 35.160156 -48.988281 33.105469 -50.042969 32.546875 -48.65625 Z M 12.273438 -54.710938 C 14.71875 -54.320312 13.386719 -52.820312 11.554688 -51.878906 C 9.441406 -50.820312 6.886719 -50.378906 4.554688 -50.210938 C 6.222656 -53.375 8.832031 -55.210938 12.273438 -54.710938 Z M 12.273438 -54.710938 "/></g></g></g><g fill="#8950ab" fill-opacity="1"><g transform="translate(439.035113, 855.653806)"><g><path d="M 57.375 -48.433594 C 55.542969 -40.65625 49.042969 -24.214844 41.324219 -25.105469 C 31.492188 -26.328125 38.824219 -49.210938 30.105469 -50.265625 C 22.9375 -51.15625 20.996094 -36.269531 18.441406 -30.9375 C 18.382812 -31.269531 18.328125 -31.605469 18.273438 -31.992188 C 16.773438 -42.601562 17.605469 -62.761719 11.71875 -62.152344 C 6.5 -61.597656 4.5 -40.769531 3.164062 -31.714844 C 3.054688 -40.378906 4.609375 -50.878906 4.664062 -50.933594 C 4.941406 -53.933594 0.390625 -54.433594 0.0546875 -51.433594 C -0.554688 -45.433594 -1.277344 -30.4375 0.667969 -24.996094 C 1.722656 -22.050781 4.164062 -22.273438 4.886719 -24.382812 C 6.441406 -29.105469 5.441406 -56.210938 10.996094 -60.265625 C 15.441406 -63.429688 12.71875 -39.214844 13.71875 -31.328125 C 14.773438 -23.382812 20.105469 -23.382812 22.550781 -29.214844 C 24.882812 -34.824219 25.773438 -46.601562 29.4375 -47.542969 C 35.546875 -49.101562 30.605469 -25.382812 40.878906 -23.882812 C 49.65625 -22.605469 56.710938 -39.601562 59.375 -47.933594 C 59.875 -49.488281 57.765625 -50.101562 57.375 -48.433594 Z M 57.375 -48.433594 "/></g></g></g><g fill="#8950ab" fill-opacity="1"><g transform="translate(496.33555, 855.653806)"><g><path d="M 37.769531 -48.542969 C 35.160156 -42.492188 31.214844 -35.269531 24.714844 -35.601562 C 17.773438 -35.992188 19.105469 -46.542969 18.164062 -52.265625 C 17.386719 -56.597656 14.664062 -56.210938 13.164062 -52.433594 C 11.609375 -53.433594 9.886719 -54.097656 8 -54.097656 C -1.945312 -53.988281 -5.832031 -33.492188 2.332031 -32.824219 C 7.5 -32.382812 10.441406 -40.214844 13.441406 -47.042969 C 15.550781 -46.988281 16.605469 -49.433594 15.164062 -50.933594 C 15.441406 -51.433594 15.550781 -51.710938 15.664062 -51.988281 C 15.664062 -51.933594 15.71875 -51.878906 15.71875 -51.820312 C 16.828125 -45.15625 16.996094 -34.824219 24.605469 -34.546875 C 31.769531 -34.269531 35.769531 -41.546875 39.546875 -47.601562 C 40.378906 -48.820312 38.324219 -49.878906 37.769531 -48.542969 Z M 2.777344 -34.160156 C -3.554688 -34.382812 1.222656 -51.378906 7.832031 -50.488281 C 9.21875 -50.265625 10.609375 -49.210938 11.71875 -47.824219 C 10.496094 -43.269531 7.71875 -33.992188 2.777344 -34.160156 Z M 2.777344 -34.160156 "/></g></g></g><g fill="#8950ab" fill-opacity="1"><g transform="translate(391.114938, 727.772786)"><g><path d="M 25.921875 -3.296875 C 26.472656 -2.796875 26.75 -2.253906 26.75 -1.671875 C 26.75 -1.296875 26.601562 -0.921875 26.3125 -0.546875 C 26.019531 -0.179688 25.632812 0 25.15625 0 C 24.707031 0 24.335938 -0.101562 24.046875 -0.3125 L 20.390625 -3.34375 C 17.890625 -0.851562 14.753906 0.390625 10.984375 0.390625 C 9.148438 0.390625 7.484375 -0.0234375 5.984375 -0.859375 C 4.492188 -1.691406 3.320312 -2.789062 2.46875 -4.15625 C 1.613281 -5.519531 1.1875 -6.960938 1.1875 -8.484375 C 1.1875 -10.335938 1.675781 -11.988281 2.65625 -13.4375 C 3.644531 -14.882812 5.125 -16.019531 7.09375 -16.84375 C 6.5625 -17.613281 6.160156 -18.34375 5.890625 -19.03125 C 5.628906 -19.71875 5.5 -20.4375 5.5 -21.1875 C 5.5 -22.476562 5.828125 -23.660156 6.484375 -24.734375 C 7.148438 -25.816406 8.109375 -26.675781 9.359375 -27.3125 C 10.609375 -27.945312 12.054688 -28.265625 13.703125 -28.265625 C 15.523438 -28.265625 17.132812 -27.9375 18.53125 -27.28125 C 19.925781 -26.632812 20.875 -25.804688 21.375 -24.796875 C 21.5625 -24.429688 21.65625 -24.019531 21.65625 -23.5625 C 21.65625 -23.144531 21.503906 -22.789062 21.203125 -22.5 C 20.898438 -22.207031 20.492188 -22.0625 19.984375 -22.0625 C 19.398438 -22.0625 18.976562 -22.269531 18.71875 -22.6875 C 18.15625 -23.488281 17.46875 -24.082031 16.65625 -24.46875 C 15.851562 -24.851562 14.867188 -25.046875 13.703125 -25.046875 C 12.347656 -25.046875 11.300781 -24.695312 10.5625 -24 C 9.832031 -23.3125 9.46875 -22.425781 9.46875 -21.34375 C 9.46875 -20.382812 9.8125 -19.410156 10.5 -18.421875 C 11.195312 -17.441406 12.179688 -16.265625 13.453125 -14.890625 L 14.171875 -14.09375 C 15.710938 -12.394531 17.597656 -10.550781 19.828125 -8.5625 C 20.515625 -9.914062 20.992188 -11.398438 21.265625 -13.015625 C 21.390625 -13.785156 21.921875 -14.171875 22.859375 -14.171875 C 23.390625 -14.171875 23.816406 -13.953125 24.140625 -13.515625 C 24.472656 -13.078125 24.601562 -12.566406 24.53125 -11.984375 C 24.175781 -9.804688 23.507812 -7.867188 22.53125 -6.171875 C 23.625 -5.210938 24.753906 -4.253906 25.921875 -3.296875 Z M 11.75 -3.1875 C 14.082031 -3.1875 16.082031 -3.992188 17.75 -5.609375 C 14.914062 -8.109375 12.515625 -10.472656 10.546875 -12.703125 C 10.179688 -13.097656 9.742188 -13.601562 9.234375 -14.21875 C 7.722656 -13.757812 6.648438 -13.09375 6.015625 -12.21875 C 5.378906 -11.34375 5.0625 -10.28125 5.0625 -9.03125 C 5.0625 -8 5.296875 -7.046875 5.765625 -6.171875 C 6.242188 -5.296875 6.988281 -4.578125 8 -4.015625 C 9.007812 -3.460938 10.257812 -3.1875 11.75 -3.1875 Z M 11.75 -3.1875 "/></g></g></g></svg>